<?xml version="1.0" encoding="utf-8"?>
<!-- Generator: Adobe Illustrator 27.6.1, SVG Export Plug-In . SVG Version: 6.00 Build 0)  -->
<svg version="1.1" id="Layer_1" xmlns="http://www.w3.org/2000/svg" xmlns:xlink="http://www.w3.org/1999/xlink" x="0px" y="0px"
	 viewBox="0 0 1920 540" style="enable-background:new 0 0 1920 540;" xml:space="preserve">
<style type="text/css">
	.st0{fill:#030303;}
	.st1{fill:#090909;}
	.st2{fill:#0E0E0E;}
	.st3{fill:#121212;}
	.st4{fill:#161616;}
</style>
<path class="st0" d="M1920.45,442.95l-40-1.85c-40-1.8-120-5.49-200-3.75s-160,8.94-240,16.09c-80,7.14-160,14.34-240,17.88
	c-80,3.6-160,3.6-240-1.75c-80-5.3-160-15.99-240-21.28c-80-5.35-160-5.35-240-6.24c-80-0.95-160-2.75-240-0.1s-160,9.84-200,13.39
	l-40,3.6v81.42h40c40,0,120,0,200,0s160,0,240,0s160,0,240,0s160,0,240,0s160,0,240,0s160,0,240,0s160,0,240,0s160,0,200,0h40
	V442.95z"/>
<path class="st1" d="M1920.45,318.57l-40-7.14c-40-7.19-120-21.48-200-30.47c-80-8.99-160-12.69-240-4.6
	c-80,8.09-160,27.87-240,41.36s-160,20.68-240,4.5c-80-16.14-160-55.6-240-69.09s-160-1-240,13.34c-80,14.29-160,30.47-240,43.96
	s-160,24.28-200,29.72l-40,5.4v114.39l40-3.6c40-3.55,120-10.74,200-13.39s160-0.85,240,0.1c80,0.9,160,0.9,240,6.24
	c80,5.3,160,15.99,240,21.28c80,5.35,160,5.35,240,1.75c80-3.55,160-10.74,240-17.88c80-7.14,160-14.34,240-16.09s160,1.95,200,3.75
	l40,1.85V318.57z"/>
<path class="st2" d="M1920.45,156.72l-40-1.75c-40-1.75-120-5.25-200-6.99s-160-1.75-240,8.09c-80,9.79-160,29.47-240,33.02
	c-80,3.6-160-8.89-240-24.13c-80-15.24-160-33.22-240-37.72c-80-4.5-160,4.5-240,12.59c-80,8.04-160,15.24-240,19.73
	c-80,4.5-160,6.29-200,7.24l-40,0.9v178.83l40-5.39c40-5.44,120-16.23,200-29.72s160-29.67,240-43.96c80-14.34,160-26.83,240-13.34
	c80,13.49,160,52.95,240,69.09c80,16.19,160,8.99,240-4.5c80-13.49,160-33.27,240-41.36c80-8.09,160-4.4,240,4.6
	s160,23.28,200,30.47l40,7.14V156.72z"/>
<path class="st3" d="M1920.45,75.79l-40,3.6c-40,3.55-120,10.74-200,10.74s-160-7.19-240-2.7c-80,4.5-160,20.68-240,23.43
	c-80,2.75-160-7.94-240-17.73c-80-9.84-160-18.83-240-21.58c-80-2.75-160,0.75-240,7.89c-80,7.19-160,17.98-240,26.08
	s-160,13.39-200,16.09l-40,2.65v44.46l40-0.9c40-0.95,120-2.75,200-7.24s160-11.69,240-19.73c80-8.09,160-17.08,240-12.59
	s160,22.48,240,37.72c80,15.24,160,27.72,240,24.13c80-3.55,160-23.23,240-33.02c80-9.84,160-9.84,240-8.09s160,5.25,200,6.99
	l40,1.75V75.79z"/>
<path class="st4" d="M1920.45,0.36h-40c-40,0-120,0-200,0s-160,0-240,0s-160,0-240,0s-160,0-240,0s-160,0-240,0s-160,0-240,0
	s-160,0-240,0s-160,0-200,0h-40v124.88l40-2.65c40-2.7,120-7.99,200-16.09s160-18.88,240-26.08c80-7.14,160-10.64,240-7.89
	c80,2.75,160,11.74,240,21.58c80,9.79,160,20.48,240,17.73s160-18.93,240-23.43c80-4.5,160,2.7,240,2.7s160-7.19,200-10.74l40-3.6
	V0.36z"/>
</svg>
