<?xml version="1.0" encoding="UTF-8"?>
<svg xmlns="http://www.w3.org/2000/svg" viewBox="0 0 1920 1823">
  <defs>
    <style>
      .cls-1, .cls-2, .cls-3, .cls-4, .cls-5, .cls-6, .cls-7, .cls-8, .cls-9, .cls-10, .cls-11, .cls-12, .cls-13, .cls-14 {
        fill: none;
      }

      .cls-2, .cls-3, .cls-4, .cls-5, .cls-6, .cls-7, .cls-15, .cls-16, .cls-8, .cls-9, .cls-11, .cls-12, .cls-17, .cls-13 {
        stroke-miterlimit: 10;
      }

      .cls-2, .cls-3, .cls-4, .cls-5, .cls-6, .cls-17 {
        stroke-width: 3px;
      }

      .cls-2, .cls-9, .cls-17 {
        stroke: #fff;
      }

      .cls-3, .cls-12 {
        stroke: #ffd147;
      }

      .cls-4 {
        stroke: #053c5e;
      }

      .cls-5 {
        stroke: #00666b;
      }

      .cls-6, .cls-8, .cls-11 {
        stroke: #bfe3ee;
      }

      .cls-18 {
        fill: #f7b58e;
      }

      .cls-19 {
        fill: #f7fcfa;
      }

      .cls-20 {
        fill: #f39f85;
      }

      .cls-21 {
        fill: #f7d360;
      }

      .cls-22 {
        fill: #053c5e;
      }

      .cls-23 {
        fill: #00666b;
      }

      .cls-24 {
        fill: #ecb893;
      }

      .cls-25, .cls-17 {
        fill: #f6a505;
      }

      .cls-26 {
        fill: #fff;
      }

      .cls-27 {
        fill: #ffda70;
      }

      .cls-28, .cls-15, .cls-16 {
        fill: #63c0c4;
      }

      .cls-29 {
        fill: #bfe3ee;
      }

      .cls-30 {
        fill: #dae9eb;
      }

      .cls-31 {
        fill: #232b4f;
      }

      .cls-32 {
        fill: #232c4f;
      }

      .cls-33 {
        fill: #212b53;
      }

      .cls-34 {
        fill: #2a6468;
      }

      .cls-7 {
        stroke-width: 10px;
      }

      .cls-7, .cls-13 {
        stroke: #f6a505;
      }

      .cls-15, .cls-10, .cls-14 {
        stroke: #63c0c4;
      }

      .cls-16 {
        stroke: #212b53;
      }

      .cls-8, .cls-9 {
        stroke-width: 2px;
      }

      .cls-10 {
        stroke-linecap: square;
        stroke-linejoin: bevel;
      }

      .cls-10, .cls-11, .cls-14 {
        stroke-width: 4px;
      }

      .cls-13 {
        stroke-width: 7px;
      }

      .cls-14 {
        stroke-miterlimit: 150;
      }
    </style>
  </defs>
  <g id="background-layer">
    <rect class="cls-21" y="743" width="1920" height="1080"/>
  </g>
  <g id="Layer_1" data-name="Layer 1">
    <path class="cls-11" d="m1388.33,1577.89c11.31-5.21,20.84-10.72,25.67-13.89"/>
    <g>
      <path class="cls-28" d="m817.54,1210.33s-107.19-42.96-146.94-143.71c-43.32-109.8,8.72-209.41,12.72-207.45,0,0,122.6,56.85,153.59,160.62,30.99,103.78-19.38,190.54-19.38,190.54Z"/>
      <g>
        <line class="cls-16" x1="694.82" y1="893.84" x2="804.62" y2="1174.8"/>
        <line class="cls-16" x1="738.42" y1="906.75" x2="717.25" y2="950.92"/>
        <line class="cls-16" x1="770.72" y1="930.98" x2="738.42" y2="1004.81"/>
        <line class="cls-16" x1="798.17" y1="964.89" x2="759.41" y2="1058.25"/>
        <line class="cls-16" x1="820.77" y1="1014.94" x2="779.75" y2="1110.01"/>
        <line class="cls-16" x1="836.92" y1="1079.53" x2="800.26" y2="1160.27"/>
        <line class="cls-16" x1="672.22" y1="937.43" x2="719.99" y2="957.91"/>
        <line class="cls-16" x1="681.9" y1="987.49" x2="741.07" y2="1011.57"/>
        <line class="cls-16" x1="664.14" y1="1021.4" x2="761.8" y2="1064.33"/>
        <line class="cls-16" x1="686.75" y1="1076.3" x2="782.73" y2="1117.61"/>
        <line class="cls-16" x1="749.72" y1="1147.08" x2="802.44" y2="1169.2"/>
      </g>
      <line class="cls-15" x1="823" y1="996.17" x2="834" y2="996.17"/>
    </g>
    <path class="cls-4" d="m573.5,1067.5c-8.46-11.7-32.73-51.72-36.87-57.76-3.94-5.75-8.11-11.94-15.55-18.66-3.09-2.79-5.85-4.86-7.77-6.22"/>
    <ellipse class="cls-33" cx="507.74" cy="978.55" rx="24.18" ry="9.32" transform="translate(-491.05 511.88) rotate(-37.53)"/>
    <ellipse class="cls-26" cx="507.61" cy="978.75" rx="8.75" ry="3.37" transform="translate(-491.2 511.85) rotate(-37.53)"/>
    <path class="cls-4" d="m594.5,1051.5c-5.54-21.77-21.37-76.45-26.89-91.85-9.95-27.78-19.43-47.93-21.77-52.86-9.73-20.5-18.59-35.83-24.88-46.64-6.66-11.46-12.6-20.97-17.1-27.99"/>
    <ellipse class="cls-25" cx="492.78" cy="819.24" rx="46.34" ry="17.86" transform="translate(-285.58 264.13) rotate(-23.48)"/>
    <ellipse class="cls-32" cx="493.35" cy="818.11" rx="14.07" ry="5.77" transform="translate(-299.93 285.75) rotate(-25.04)"/>
    <path class="cls-4" d="m646.5,1122.5c-.61-8.77-2.04-54.48-3.59-68.23-1.37-12.18-5.2-43.65-13.99-83.96-5.4-24.75-12.85-53.65-23.32-85.51"/>
    <ellipse class="cls-23" cx="603.82" cy="879.66" rx="20.31" ry="7.83" transform="translate(-300.45 313.37) rotate(-23.48)"/>
    <ellipse class="cls-33" cx="604.2" cy="879.67" rx="4.12" ry="1.59" transform="translate(-326.72 357.88) rotate(-26.25)"/>
    <line class="cls-15" x1="818.5" y1="980.5" x2="827.5" y2="971.5"/>
    <g>
      <path class="cls-25" d="m799.08,1482.6c-25.62-.16-26.04-12.21-71.52-17.1-5.03-.54-26.57-.95-45.09-13.99-6.71-4.73-13.45-9.12-17.1-17.1-3.41-7.46-3.2-14.78-3.11-17.1.12-3.03.33-8.27,3.11-13.99,3.02-6.21,6.15-7.01,6.22-10.88.09-5.3-5.68-9.39-7.77-10.88-7.16-5.08-14.23-5.32-21.77-6.22-11.44-1.37-20.07-4.02-37.32-9.33-12.52-3.85-18.94-5.88-26.43-10.88-7-4.67-16.03-10.7-18.66-21.77-.38-1.59-3.13-13.19,3.11-20.21,5.52-6.2,18.83-9.7,23.32-10.88,2.46-.65,4.69-1.11,6.22-3.11,3.9-5.12-1.08-14.67-1.55-15.55-3.75-6.99-9.06-9.37-15.55-13.99-4.11-2.93-9.48-8.69-20.21-20.21-22.99-24.68-42.82-45.95-38.87-65.3,4.25-20.84,32.84-23.63,37.32-51.31,1.29-8.01,0-13.99,0-13.99-1.27-3.71-3.18-5.57-4.66-7.77-4.14-6.13-3.74-12.88-3.11-23.32.46-7.68,1.4-20.92,9.33-35.76,5.07-9.49,8.76-16.4,17.1-20.21,12.17-5.56,24.06-.37,24.88,0,14.87,6.82,18.26,24.2,18.66,26.43.86,4.83,0,5.98,1.55,23.32.46,5.16.86,8.63,3.11,12.44,3.5,5.91,9.04,8.5,10.88,9.33,10.41,4.69,20.85.93,23.32,0,8.65-3.26,8.43-7.21,23.32-18.66,13.46-10.35,18.43-10.81,20.21-10.88,9.78-.43,17.32,6.54,18.66,7.77,17.95,16.59,14.4,53.7,13.99,57.53-.59,5.53-1.84,12.48,1.55,20.21,3.17,7.23,8.71,11.27,12.44,13.99,3.58,2.62,16.85,12.3,26.43,7.77,2.35-1.11,2.64-2.21,7.77-9.33,13.7-19.01,19.64-22.27,21.77-23.32,2.31-1.15,6.76-3.35,12.44-3.11,10.02.43,17.42,8.2,23.32,15.55,18.61,23.19,26.43,46.64,26.43,46.64,19.7,59.09,11.28,74.66,29.54,93.29,1.13,1.16,23.69,23.79,38.87,20.21,1.37-.32,4.46-1.28,7.77,0,6.1,2.35,9.07,10.76,9.33,17.1.4,9.83-5.59,17.49-7.77,20.21-66.75,83.09-100.12,124.64-141.49,124.38Z"/>
      <g>
        <path class="cls-33" d="m830.63,1430.7c-30.69-28.8-74.59-69.62-104.59-98.78-6.92-6.7-13.6-13.7-20.15-20.77-19.53-21.31-36.97-44.58-52.51-68.92-15.42-24.39-28.89-49.96-40.91-76.18-15.87-35.02-28.21-71.57-36.92-108.93l.88-.21c17.02,67.26,46.27,131.17,85.05,188.6,20.11,29.52,43.39,56.92,69.51,81.27,30.44,28.43,75.28,68.53,106.36,96.55,0,0-6.73,7.39-6.73,7.39h0Z"/>
        <path class="cls-33" d="m691.6,1130.31c-12.53,25.31-19.92,53.19-22.21,81.3-1.14,16.8-.12,33.87,2.08,50.52,0,0-5.95.74-5.95.74-1.71-17.21-2.2-34.46-.47-51.66,1.91-17.1,5.9-33.96,11.59-50.17,3.61-10.81,8.33-21.33,13.75-31.35,0,0,1.21.62,1.21.62h0Z"/>
        <path class="cls-33" d="m568.21,1211.11c10.56,2.35,20.94,5.54,30.96,9.77,8.65,3.62,20.56,10.09,29.02,14.42,10.76,5.6,21.54,11.57,31.43,18.82,6.13,4.66,15.61,13.36,21.51,18.48,0,0-3.24,3.81-3.24,3.81l-11.98-10.9c-11.71-11-25.35-19.29-39.42-27.06-8.25-4.51-19.95-11.27-28.41-15.09-9.71-4.41-19.9-7.86-30.28-10.46l.42-1.78h0Z"/>
        <path class="cls-33" d="m822.03,1190.96c1.3,23.79-4.33,47.13-8.58,70.37-3.92,20.25-8.16,40.61-12.9,60.7-3.83,16.4-9.77,33.84-15.07,50.56-.66,2.13-1.56,4-.71,6.35,0,0-8.53-2.88-8.53-2.88,2.1-1.35,2.52-3.39,3.29-5.48,0,0,2.09-5.89,2.09-5.89,4.22-11.97,9.77-27.55,12.61-37.47,9.36-33.29,16.72-67.23,23.27-101.16,2.05-11.54,2.93-23.3,2.48-35.02l2.05-.08h0Z"/>
        <path class="cls-33" d="m585.01,1327.34c51.39-.44,102.83,2.14,153.93,7.69,0,0-.88,6.94-.88,6.94-25.32-3.62-50.81-6.55-76.3-8.81-25.52-2.22-51.13-3.73-76.76-4.51v-1.32h.01Z"/>
        <path class="cls-33" d="m696.96,1428.65c13.32-1.92,26.8-3.12,40.26-3.47,11.33.07,22.9-.1,34.2.24,0,0,24.85.59,24.85.59l-.57,7.98c-17.04-1.72-38.56-3.79-55.44-4.91-6.11-.5-12.39-.57-18.51-.6-8.24,0-16.49.29-24.73.87l-.08-.71h0Z"/>
      </g>
    </g>
    <path class="cls-28" d="m1279.42,1258.88c-2.59-8.62-6.87-17.29-10.36-24.76h.01c-4.74-12.11-17.01-27.96-23.25-35.51-6.14-6.98-32.06-.43-52.46,10.3-14.51-16.83-31.52-31.43-50.46-43.23,4.96-13.24,8.94-29.02,9.28-36.53.36-7.96-3.85-15.46-10.82-19.34-7.87-4.37-16.98-7.61-24.69-10.53h0c-11.83-5.39-31.67-8.21-41.41-9.27-9.18-.73-23.01,21.59-30.23,43.3-6-.5-12.07-.75-18.2-.75-15.92,0-31.44,1.69-46.4,4.91-6.34-12.9-15.47-27.1-20.86-32.59-5.58-5.69-13.94-7.72-21.53-5.26-8.56,2.78-17.14,7.24-24.53,10.89h-.01c-12,4.99-27.58,17.59-35,23.99-6.36,5.84-.69,28.46,9.08,47.8-17.89,14.66-33.42,32.09-45.94,51.63-12.74-4.31-27.11-7.6-34.16-7.81-7.97-.23-15.4,4.1-19.16,11.14-4.24,7.93-7.34,17.1-10.13,24.85h-.01c-5.19,11.92-7.68,31.8-8.59,41.56-.53,8.44,18.44,20.49,38.45,27.71-.66,6.9-.99,13.89-.99,20.96,0,16.85,1.9,33.26,5.49,49.03-11.37,6.03-22.74,13.53-27.52,18.21-5.69,5.57-7.73,13.93-5.28,21.52,2.77,8.57,7.22,17.15,10.86,24.55h0c4.98,12.01,17.56,27.61,23.95,35.04,5.44,5.94,25.5,1.43,43.89-7.12,15.43,18.39,33.83,34.21,54.45,46.74-3.73,11.6-6.47,23.77-6.7,30.08-.28,7.96,4,15.43,11.01,19.24,7.91,4.29,17.05,7.45,24.78,10.3h0c11.89,5.28,31.75,7.91,41.5,8.88,8.3.58,20.21-17.67,27.61-37.25,5.2.37,10.45.56,15.75.56,18.84,0,37.12-2.37,54.57-6.83,5.92,11.4,13.3,22.8,17.93,27.62,5.52,5.75,13.86,7.87,21.48,5.49,8.58-2.69,17.21-7.06,24.64-10.64h.01c12.05-4.86,27.76-17.3,35.25-23.62,6.34-5.7,1.11-27.92-8.25-47.2,45.47-40.26,74.14-99.08,74.14-164.6,0-17.84-2.13-35.19-6.14-51.8,13.09-6.05,27.61-14.95,33.25-20.25,5.8-5.46,8.01-13.77,5.71-21.41Zm-253.39,193.36c-55.61,0-100.7-45.09-100.7-100.7s45.09-100.7,100.7-100.7,100.7,45.09,100.7,100.7-45.1,100.7-100.7,100.7Z"/>
    <path class="cls-9" d="m1080.33,1157.88c-39-13.94-79.72-12.86-115.83.25"/>
    <path class="cls-2" d="m837.55,1387c4.89,29.85,16.61,57.41,33.5,81"/>
    <path class="cls-9" d="m1155.31,1295.05c-21.14-49.98-70.63-85.05-128.31-85.05-76.91,0-139.25,62.34-139.25,139.25s62.34,139.25,139.25,139.25,139.25-62.34,139.25-139.25c0-19.23-3.9-37.54-10.94-54.2"/>
    <line class="cls-1" x1="563" x2="561.63" y2="3.24"/>
    <g>
      <path class="cls-28" d="m1738.26,1223.8c4.1-9.62,7.44-19.72,9.95-30.23,3.52-14.79,5.18-29.6,5.13-44.16,12.05-2.43,25.84-6.95,31.56-10.23,5.89-3.38,9.36-9.84,8.96-16.62-.45-7.66-2.28-15.69-3.7-22.57h.01c-1.54-10.97-8.59-26.54-12.27-34.03-3.71-7-26.5-6.68-45.53-1.81-8.71-16.82-19.93-32.28-33.31-45.8,6.73-10,13.14-22.3,14.9-28.46,1.87-6.53-.14-13.58-5.15-18.17-5.66-5.18-12.58-9.66-18.39-13.6h0c-8.75-6.8-24.64-13.06-32.51-15.86-7.47-2.42-23.34,13.36-33.61,29.93-4.88-1.6-9.86-3-14.94-4.21-13.2-3.14-26.4-4.8-39.44-5.09-2.71-11.95-7.48-25.52-10.86-31.14-3.5-5.82-10.03-9.15-16.81-8.61-7.65.62-15.64,2.62-22.49,4.19h0c-10.94,1.77-26.34,9.14-33.75,12.98-6.43,3.59-6.19,23.46-1.9,41.42-17.73,8.62-34.04,20.01-48.28,33.74-9.71-6.09-20.98-11.65-26.78-13.22-6.56-1.76-13.58.36-18.08,5.46-5.08,5.74-9.46,12.73-13.3,18.6h0c-6.66,8.86-12.64,24.85-15.32,32.76-2.11,6.89,11.25,20.63,26.41,30.56-1.91,5.59-3.56,11.32-4.96,17.18-3.33,13.97-4.99,27.95-5.12,41.73-10.62,2.76-21.52,6.73-26.41,9.67-5.82,3.5-9.16,10.02-8.62,16.8.61,7.65,2.6,15.64,4.16,22.5h-.01c1.76,10.94,9.11,26.35,12.94,33.78,3.34,6,20.86,6.22,37.79,2.76,9.16,18.29,21.3,35.04,35.92,49.5-5.38,8.88-10.06,18.43-11.49,23.62-1.8,6.54.27,13.58,5.33,18.12,5.71,5.12,12.67,9.54,18.51,13.43h0c8.82,6.72,24.76,12.82,32.66,15.55,6.77,2.12,20.24-10.66,30.24-25.44,4.24,1.33,8.55,2.53,12.95,3.57,15.62,3.72,31.24,5.36,46.59,5.11,2.66,10.62,6.53,21.53,9.42,26.44,3.44,5.86,9.94,9.26,16.73,8.79,7.64-.54,15.66-2.46,22.53-3.96h0c10.95-1.65,26.43-8.86,33.89-12.62,6.38-3.47,6.43-22.93,2.47-40.76,11.19-5.98,21.78-13.1,31.56-21.22,10.61,7.99,28.69,17.14,36.6,19.11,6.59,1.65,13.57-.6,17.99-5.78,4.98-5.83,9.22-12.9,12.97-18.84h0c6.49-8.97,12.19-25.08,14.73-33.03,2.09-7.36-13.38-22.12-29.85-31.84Zm-192.64,9.07c-46.11-10.97-74.59-57.26-63.62-103.36,10.97-46.11,57.26-74.59,103.36-63.62,46.1,10.97,74.59,57.26,63.62,103.36-10.97,46.11-57.26,74.59-103.36,63.62Z"/>
      <circle class="cls-2" cx="1568.25" cy="1149.5" r="120.75"/>
      <g>
        <path class="cls-9" d="m1717.74,1229.42c12.31-23.61,19.26-50.45,19.26-78.92,0-23.61-4.78-46.1-13.44-66.56"/>
        <path class="cls-9" d="m1723.56,1083.94c-18.9-44.69-56.26-79.67-102.52-95.39"/>
      </g>
      <path class="cls-9" d="m1422.33,1057.66c-26.6,39.51-34.5,86.13-25.75,129.4"/>
    </g>
    <g>
      <path class="cls-25" d="m1566.33,1292.49c-6.43,102.84,69.62,192.46,69.62,192.46,0,0,88.04-93.5,110.74-194.01,21.77-96.4-88.28-178.47-88.28-178.47,0,0-84.31,55.63-92.08,180.02Z"/>
      <line class="cls-17" x1="1658.41" y1="1112.13" x2="1635.95" y2="1484.95"/>
      <line class="cls-17" x1="1571.24" y1="1255.03" x2="1647.18" y2="1289.75"/>
    </g>
    <g>
      <path class="cls-31" d="m1857.9,1189.23c-.12-.26-.19-.39-.19-.39,0,0-.5-.03-1.42-.06,0,0-.01,0-.02,0-.01,0-.03,0-.04,0-12.12-.38-96.85-.14-168.85,76.17-150.92,159.98-52.86,230.11-52.86,230.11,0,0,113.5,26.44,222.33-132.15,49.16-71.64,4.38-166.85,1.05-173.68Z"/>
      <path class="cls-5" d="m1857.68,1189.5c-22.97,28.33-46.27,56.39-69.41,84.59s-46.57,57.93-70.71,86.2c-13.26,15.53-26.57,31.05-39.07,47.21"/>
      <line class="cls-5" x1="1716.5" y1="1239.5" x2="1745.35" y2="1325.84"/>
      <line class="cls-5" x1="1879.4" y1="1257.96" x2="1799.45" y2="1260.25"/>
    </g>
    <line class="cls-5" x1="1838" y1="1387.5" x2="1694.9" y2="1387.01"/>
    <g>
      <path class="cls-25" d="m1579.74,1567.11s-23.19,105.54,175.82,29.36c102.52-39.25,122.03-147.13,122.03-147.13,0,0-66.06-64.33-192-23.9-84.21,27.03-105.86,141.67-105.86,141.67Z"/>
      <g>
        <line class="cls-3" x1="1674" y1="1528" x2="1879" y2="1449"/>
        <line class="cls-3" x1="1788" y1="1414" x2="1748" y2="1499"/>
        <line class="cls-3" x1="1773" y1="1589" x2="1668" y2="1535"/>
      </g>
    </g>
    <g>
      <path class="cls-23" d="m1406.67,1568.76c1.92-.6,3.86-1.27,5.78-2.02,9.09,12.4,20.18,23.27,32.83,32.14-2.87,7.26-5.13,14.92-5.54,18.94-.51,5.08,1.91,10.03,6.23,12.76,4.87,3.07,10.58,5.47,15.4,7.62,3.69,1.94,8.68,3.53,13.52,4.77s9.53,2.13,12.62,2.64c5.28.72,13.66-10.44,19.21-22.64,3.3.45,6.65.79,10.04,1.01,12.03.79,23.81.05,35.15-2.07,3.3,7.53,7.54,15.12,10.3,18.4,3.28,3.9,8.52,5.61,13.49,4.4,5.6-1.35,11.29-3.78,16.19-5.76h.01c7.9-2.6,18.46-9.89,23.51-13.61,4.29-3.38,1.88-17.8-3.29-30.51,7.53-5.84,14.48-12.44,20.7-19.69,8.87,4.59,23.41,9.09,29.52,9.56,5.09.39,9.97-2.15,12.59-6.54,2.96-4.95,5.21-10.72,7.24-15.59,1.84-3.73,3.31-8.76,4.43-13.63s1.89-9.58,2.33-12.69c.63-5.71-12.69-14.7-26.11-19.83,1.83-7.65,3.03-15.54,3.56-23.65.75-11.39.12-22.57-1.75-33.35,8.62-3.32,18.27-8.39,22.1-11.54,3.93-3.25,5.69-8.47,4.54-13.44-1.29-5.62-3.66-11.34-5.58-16.26h.01c-2.52-7.93-9.7-18.58-13.37-23.66-3.63-4.72-20.47-1.62-33.95,4.38-8.56-11.36-18.82-21.4-30.43-29.73,3.73-8.26,6.93-18.17,7.46-22.96.57-5.07-1.81-10.03-6.1-12.81-4.84-3.12-10.53-5.57-15.33-7.76-3.67-1.97-8.64-3.61-13.47-4.9-4.83-1.28-9.51-2.22-12.6-2.76-5.84-.85-15.61,12.83-21.13,26.4-3.81-.57-7.68-.98-11.6-1.24-10.17-.67-20.16-.24-29.85,1.19-3.51-8.51-8.75-17.96-11.96-21.7-3.33-3.86-8.59-5.51-13.54-4.26-5.58,1.42-11.25,3.91-16.13,5.93h0c-7.88,2.69-18.36,10.08-23.37,13.86-4.31,3.47-1.64,18.16,3.8,30.92-12.05,8.62-22.7,19.1-31.52,31.06-7.96-3.28-17-5.99-21.5-6.42-5.08-.48-10.01,1.98-12.71,6.32-3.04,4.89-5.4,10.62-7.51,15.45h-.01c-3.81,7.4-6.24,20-7.23,26.19-.69,5.37,10.92,13.87,23.41,19.32-.71,4.38-1.22,8.83-1.51,13.35-.71,10.77-.18,21.33,1.45,31.56-7.52,3.37-15.1,7.69-18.35,10.48-3.87,3.32-5.52,8.57-4.27,13.53,1.41,5.59,3.89,11.26,5.91,16.14h-.01c2.68,7.88,10.06,18.37,13.83,23.39,2.72,3.38,12.36,2.47,22.56-.69m183.16-81.52c-2.33,35.53-33.04,62.45-68.56,60.12-35.53-2.33-62.45-33.03-60.12-68.56,2.33-35.53,33.03-62.45,68.56-60.12,35.53,2.33,62.45,33.03,60.12,68.56Z"/>
      <circle class="cls-8" cx="1527.5" cy="1480.5" r="89.5"/>
      <path class="cls-8" d="m1632.85,1406.1c14.95,21.52,20,41.62,20,70,0,72.9-57.98,132-129.5,132-29.5,0-56.7-10.05-78.47-26.98"/>
      <polyline class="cls-6" points="1385 1517.5 1404.73 1552.5 1446 1552.5"/>
      <path class="cls-9" d="m1415.51,1415.77c14.27-26.82,37.47-45.84,63.99-55.33"/>
    </g>
    <path class="cls-2" d="m876.05,1478c35.1,49.04,92.54,81,157.45,81,57.25,0,108.68-24.86,144.11-64.37"/>
    <g>
      <g>
        <line class="cls-7" x1="1050.5" y1="1734.5" x2="1113.5" y2="1520.5"/>
        <line class="cls-7" x1="1385.78" y1="1734.5" x2="1313.5" y2="1487.5"/>
        <line class="cls-13" x1="1060.88" y1="1699.26" x2="1325.21" y2="1527.5"/>
        <line class="cls-13" x1="1111.44" y1="1527.5" x2="1376.1" y2="1701.42"/>
      </g>
      <path class="cls-27" d="m1278,1506c-106.35,22.22-203.08,13.19-289-31,154.94-37.71,291.56-152.28,410.22-342.13l130,63c-47.01,99.69-143.22,285.13-251.22,310.13Z"/>
      <path class="cls-33" d="m960.75,1732.91c-.08.52-.16,1.05-.25,1.59h-19v-6.78l-5.11,1.15-31.11,6.13-46.28-.5v-.04s-.5.04-.5.04c-.61-3.34.96-6.67,4-10,23.96-2.35,46.14-10.44,66-26,4.13,2.61,8.72,3.72,13,4.23v-.23s8,0,13-4c6.82,2.65,9.05,15.51,6.25,34.41Z"/>
      <path class="cls-33" d="m769.75,1732.91c-.08.52-.16,1.05-.25,1.59h-19v-6.78l-5.11,1.15-31.11,6.13-46.28-.5v-.04s-.5.04-.5.04c-.61-3.34.96-6.67,4-10,23.96-2.35,46.14-10.44,66-26,4.13,2.61,8.72,3.72,13,4.23v-.23s8,0,13-4c6.82,2.65,9.05,15.51,6.25,34.41Z"/>
      <g>
        <path class="cls-25" d="m1529,1195c-.62-.28-8.71,18.67-24,47-21.3,39.47-40.13,66.64-46,75-16.32,23.22-30.39,40.2-37,48-5.98,7.06-15.85,18.66-30,33-11.51,11.67-25.95,26.19-47,42,0,0-14.16,10.64-28,19-47.25,28.56-119.46,28.96-128,31-155,37-229-46-182-12,.07.05,0,.07,0,7,0,6.22-.97,7.19,0,9,.9,1.69,2.57,2.41,4,3,16.59,6.87,16.94,6.98,17,7,8.94,2.74,6.38,2.39,15,5,28.93,8.76,53,13,53,13,27.68,4.88,49.31,5.77,57,6,17.26.52,30.22-.26,42-1,20.46-1.29,33.98-2.14,52-6,25.24-5.41,43.15-13.28,47-15,19.44-8.69,32.79-18.05,44-26,15.86-11.25,27.24-21.56,33-27,10.07-9.51,16.44-16.84,27-29,8.85-10.19,19.94-23.02,33-41,11.25-15.49,18.5-27.3,30-46,8.07-13.13,13.88-22.59,21-36,5.67-10.68,10.01-19.81,19-40,1.27-2.85,29.14-65.48,28-66Z"/>
        <path class="cls-33" d="m960.5,1682l-31.5-.5,34.5-314.5c0-20.22,18.39-37,38.6-37l263.4,8c20.22,0,35,8.39,35,28.6l-281,112.4c10,18-46,176-59,203Z"/>
        <path class="cls-22" d="m1349.5,1429c-7.33,10.65-19.46,25.71-38,39-38.28,27.43-79.49,30.83-127,33-18.65.85-53.08.23-97-7-31.95-5.26-77.79-16-130-40l-6-1c-36.79,80.53-104.22,158.1-175.76,226.81-.41.4-.83.79-1.24,1.19h-30l122.86-256,12.14-25h.01c10.66-23.59,34.39-40,61.96-40l327.03,18,76.12,50.11,4.88.89Z"/>
      </g>
      <path class="cls-34" d="m1425,1252.5c-5.99,34.56-16.01,59.1-27,86,0,0-14.8,36.23-31,63-5.43,8.96-12,19-12,19-.8,1.21-2.18,3.3-3,4.54-1.97,2.97-2.95,4.46-3,4.46-.2-.01-.43-.51-.66-1.49l-.34,3.49-150-96,137-232,44.7-12.63,1.3-.37c.19.01.44.14,2,1,9.46,5.18,12.53,14.55,17,21,8.64,12.46,13.6,22.96,15,26,11.36,24.67,13.19,46.98,14,58,1.66,22.67-1.15,39.58-4,56Z"/>
      <path class="cls-18" d="m764,1698c-8.71,5.94-17.37,6.02-26,1l7-19,34-7-15,25Z"/>
      <path class="cls-18" d="m954.5,1698.18c-9.94,6.38-18.58,6.26-26,0l2-17.18h26l-2,17.18Z"/>
      <path class="cls-11" d="m1143,1346c1.29,8.84,3.27,21.62,6,37,4.23,23.81,6.35,35.72,10,48,5.35,17.99,11.36,30.77,19,47,8.57,18.21,12.86,27.34,21,39,5.17,7.41,15.61,21.17,32,35,11.84,9.99,32.23,26.82,64,35,28.66,7.38,51.67,3.89,57,3,11.94-1.99,25.02-6.9,36.33-12.11"/>
    </g>
    <path class="cls-34" d="m1382,1089.5l-1.3.37c.43-.26.87-.39,1.3-.37Z"/>
    <g>
      <path class="cls-29" d="m1425.5,1333c-1.5,5.02-.91,6.83-3,12-.86,2.14-2.47,6.02-6,10-4.24,4.78-8.84,6.99-11,8-.49.23-1.22.55-2.14.91-1.87.73-4.57,1.59-7.86,2.09-4.09.62-8.07.04-16-1-3.13-.41-4.71-.62-6-1-.94-.27-1-.57-2-1l-1.02-.36c-.14,0-.28-.01-.42-.02-.71-.03-1.43-.05-2.14-.08-1.06-.06-1.96-.08-2.74-.14-1.27-.32-2.53-.66-3.79-.99h-.01c-69.07-18.35-134.12-44.98-189.89-78.42l6.85-16.47c46.85,7.29,108.76,20.54,175.05,34.44-.45-1.45-.91-2.94-1.4-4.47-24-75-43.03-174.38,18-179,62.96-4.77,64.82,144.05,57.17,201.36-.37,2.77-.76,5.33-1.17,7.64"/>
      <g>
        <path class="cls-14" d="m1169,1284.5l8.5-18.5c56,10,118.5,22,174.5,34-12-36-20.5-74-22.5-113"/>
        <path class="cls-10" d="m1429,1233.5c.78,17.04.98,31.35,1,42,0,5.63-.02,18.03-1,34-1.48,24.12-3.51,30.09-6,35-2.09,4.11-6.94,13.69-17,19-10.58,5.59-21.58,3.64-37,0-38.98-9.19-56-16-56-16-24.45-7.78-51.44-17.85-80-31-23.32-10.73-44.32-21.97-63-33"/>
      </g>
    </g>
    <g>
      <polyline class="cls-7" points="984.44 1190 1056.44 1334 1207 1334"/>
      <rect class="cls-30" x="1135" y="1333" width="17" height="13"/>
    </g>
    <g>
      <polygon class="cls-19" points="1334 1092.5 1366 1064.5 1382 1090.5 1336 1103.5 1334 1092.5"/>
      <polygon class="cls-20" points="1331 1077.5 1334.99 1091.63 1366 1064.5 1351 1040.5 1331 1077.5"/>
      <path class="cls-18" d="m1353,1042c2.82,20.33-16.24,45.27-45,46-17.96-10.69-23.53-40.51-29-67,3.89.88,44.6-21.21,45-17,3.08.62,8.06,9.58,14.7,19.65.09-.21.2-.43.3-.65.44-.93,1.23-2.62,3-4,2.57-2.01,5.47-2.01,6-2,1.02.02,2.52.04,4,1,2.11,1.37,3.04,3.9,3,6-.05,2.55-1.52,4.27-3,6-1.66,1.95-3.47,3.15-5,4-.22.12-.45.24-.69.36,2.12,2.7,4.35,5.3,6.69,7.64Z"/>
      <path class="cls-33" d="m1321,1005c.81-.46,1.91-.32,3,0,1.23.36,2.15,1.24,4,4,1.39,2.07,1.57,2.65,3,5,1.87,3.09,1.86,2.59,4,6,1.99,3.17,2.22,3.94,3,4,1.57.12,1.82-2.96,5-5,.51-.32,3.85-2.4,7-1,1.84.82,2.73,2.43,3,3,1.1,2.29.44,4.51,0,6-.21.72-.92,3.02-3,5-2.1,2-3.66,1.84-4,3-.29.98.34,2.72,5,6,3.09-3.98,4.39-7.57,5-10,.83-3.32.89-6.55,1-13,.02-1.36.01-1.77,0-5-.04-12.62.12-12.04,0-15-.35-8.21-1.68-13.73-2-15-.79-3.15-1.87-6.48-4-10-.99-1.64-1.69-2.78-3-4-3.76-3.51-8.46-3.9-10-4-3.54-.24-6.11.65-10,2-4.89,1.69-4.75,2.57-9,4-4.28,1.44-7.84,1.71-12,2-4.37.3-7.49.15-11,0-21.27-.92-23.96-.48-26,0-3.59.85-8.55,1.98-13,6-3.27,2.95-5.17,6.44-6,8-2.07,3.89-2.82,7.18-3,8-.63,2.91-1.54,7.11,0,12,1.51,4.81,4.58,7.69,6,9,4.57,4.19,9.62,5.29,13,6,9.46,1.98,17.48-.54,22-2,3.89-1.26,2.76-1.4,12-5,9.41-3.66-2,1,12-5"/>
    </g>
    <path class="cls-24" d="m1103,1259l28-9c3.71-1.34,7.53-1.27,11.43,0l27.57,12-8,18-9-5c-1.33,1-2.67,2-4,3-.99.54-2.35,1.25-4,2-4.67,2.12-8.84,3.3-12,4-6.97,1.55-10.46,2.32-14,1-1.87-.69-5.13-1.91-7-5-1.29-2.14-2-5.3-4-6-.19-.07-.66-.22-1,0-.63.42-.13,1.92,0,3,.18,1.45-.55,2.98-2,6-1.16,2.4-2.47,5.08-5,8-1.4,1.62-2.98,3.4-4,3-.88-.35-.96-2.17-1-3-.12-2.71.9-4.79,1-5,1.04-2.15,2.24-7.81,3-23,.3-2.06,1.69-3.36,4-4Z"/>
    <g>
      <path class="cls-28" d="m357.55,922.81l-84.74,44.61c-5.68-.85-11.64-1.28-17.85-1.28h-32.8v27.94l-79.71,41.96v-138.23h115.7c39.01,0,72.66,8.64,99.4,25Z"/>
      <path class="cls-28" d="m436.24,1069.98c0,102.5-65.59,163.54-168.09,163.54h-115.7v-187.48l79.71-41.96v161.11h32.8c55.12,0,88.83-32.8,88.83-95.21,0-54.8-27.44-86.07-70.98-92.56l84.74-44.61c43.52,26.62,68.69,73.68,68.69,137.17Z"/>
    </g>
    <g>
      <path class="cls-33" d="m511.66,1345.78l-36.86,104.59h-82.88l-70.61-199.54,95.73,47.75,3.57,11.53c6.38,20.49,12.3,52.37,12.3,52.37h.91s5.44-29.32,11.51-49.79l66.33,33.09Z"/>
      <path class="cls-33" d="m514.4,1114.5l-58.29,185.34c-.26.84-.52,1.7-.78,2.58l66.33,33.09,77.9-221.01h-85.16Zm-227.69,0l44.6,126.06,95.73,47.75-53.81-173.81h-86.52Z"/>
    </g>
    <g>
      <path class="cls-25" d="m453.02,1466.17l-81.91,12.88c-13.13-34.12-44.45-56.96-81.22-56.96-45.66,0-82.91,35.2-87.38,83.48l-82.79,13.02c-.02-1.07-.03-2.14-.03-3.21,0-93.29,71.9-166.1,170.2-166.1,80.16,0,142.76,48.42,163.13,116.89Z"/>
      <path class="cls-25" d="m453.08,1536.38c0,95.56-71.9,170.19-170.19,170.19s-168.58-72.96-170.17-166.98l82.79-13.02c-.3,3.21-.45,6.49-.45,9.81,0,55.51,39.13,97.38,87.83,97.38s87.82-41.87,87.82-97.38c0-13.03-2.34-25.27-6.6-36.33l81.91-12.88c4.61,15.49,7.06,32,7.06,49.21Z"/>
    </g>
    <g>
      <path class="cls-25" d="m1363.29,854.32c0,18.63-26.28,32.86-29.54,40.49-3.26,7.63-.81,14.42,0,25.35h-34.21c1.92-14.78.64-22.89,0-25.99-15.06-10.72-27.99-21.79-27.99-39.85,0-24.54,12.44-44.45,45.87-40.33,23.03,2.83,45.87,15.79,45.87,40.33Z"/>
      <path class="cls-12" d="m1318.97,919.36v-57.92c-.04-.39-.25-2.95,1.55-4.83,1.59-1.65,3.65-1.62,4.66-1.61.32,0,3.93.12,6.22,3.22.49.66,1.8,2.44,1.55,4.83-.29,2.79-2.49,4.38-3.11,4.83-1.26.91-2.63,1.34-6.22,1.61-2.29.17-5.32.57-9.33,0-2.17-.31-3.97-.56-6.22-1.61-2.32-1.08-3.86-2.42-4.66-3.22-1.87-1.84-3.06-3.01-3.11-4.83-.05-1.97,1.24-3.98,3.11-4.83,2.36-1.07,5.06-.03,6.22,1.61.82,1.16.78,2.51.78,2.87-.08,3.83-.04,27.75,0,60.69"/>
      <path class="cls-28" d="m1299.54,920.17h34.21v13.23c0,3.97-3.23,7.2-7.2,7.2h-19.83c-3.96,0-7.18-3.22-7.18-7.18v-13.26h0Z"/>
      <polygon class="cls-23" points="1324.48 946.45 1310.48 946.45 1306.48 940.38 1327.48 940.38 1324.48 946.45"/>
    </g>
  </g>
</svg>