<?xml version="1.0" encoding="utf-8"?>
<!-- Generator: Adobe Illustrator 27.6.1, SVG Export Plug-In . SVG Version: 6.00 Build 0)  -->
<svg version="1.1" id="Layer_1" xmlns="http://www.w3.org/2000/svg" xmlns:xlink="http://www.w3.org/1999/xlink" x="0px" y="0px"
	 viewBox="0 0 1920 1080" style="enable-background:new 0 0 1920 1080;" xml:space="preserve">
<style type="text/css">
	.st0{fill:#F7D360;}
	.st1{fill:none;stroke:#BFE3EE;stroke-width:4;stroke-miterlimit:10;}
	.st2{fill:#63C0C4;}
	.st3{fill:none;stroke:#212B53;stroke-miterlimit:10;}
	.st4{fill:none;stroke:#63C0C4;stroke-miterlimit:10;}
	.st5{fill:none;stroke:#053C5E;stroke-width:3;stroke-miterlimit:10;}
	.st6{fill:#212B53;}
	.st7{fill:#FFFFFF;}
	.st8{fill:#F6A505;}
	.st9{fill:#232C4F;}
	.st10{fill:#00666B;}
	.st11{fill:none;stroke:#FFFFFF;stroke-width:2;stroke-miterlimit:10;}
	.st12{fill:none;stroke:#FFFFFF;stroke-width:3;stroke-miterlimit:10;}
	.st13{fill:#232B4F;}
	.st14{fill:none;stroke:#00666B;stroke-width:3;stroke-miterlimit:10;}
	.st15{fill:none;stroke:#FFD147;stroke-width:3;stroke-miterlimit:10;}
	.st16{fill:none;stroke:#BFE3EE;stroke-width:2;stroke-miterlimit:10;}
	.st17{fill:none;stroke:#BFE3EE;stroke-width:3;stroke-miterlimit:10;}
	.st18{fill:none;stroke:#F6A505;stroke-width:10;stroke-miterlimit:10;}
	.st19{fill:none;stroke:#F6A505;stroke-width:7;stroke-miterlimit:10;}
	.st20{fill:#FFDA70;}
	.st21{fill:#053C5E;}
	.st22{fill:#2A6468;}
	.st23{fill:#F7B58E;}
	.st24{fill:#BFE3EE;}
	.st25{fill:none;stroke:#63C0C4;stroke-width:4;stroke-miterlimit:150;}
	.st26{fill:none;stroke:#63C0C4;stroke-width:4;stroke-linecap:square;stroke-linejoin:bevel;}
	.st27{fill:#DAE9EB;}
	.st28{fill:#F7FCFA;}
	.st29{fill:#F39F85;}
	.st30{fill:#ECB893;}
	.st31{fill:none;stroke:#FFD147;stroke-miterlimit:10;}
</style>
<g id="background-layer">
	<rect x="0.45" y="0.36" class="st0" width="1920" height="1080"/>
</g>
<path class="st1" d="M1388.78,835.25c11.31-5.21,20.84-10.72,25.67-13.89"/>
<g>
	<path class="st2" d="M817.99,467.69c0,0-107.19-42.96-146.94-143.71c-43.32-109.8,8.72-209.41,12.72-207.45
		c0,0,122.6,56.85,153.59,160.62c30.99,103.78-19.38,190.54-19.38,190.54H817.99z"/>
	<g>
		<line class="st3" x1="695.27" y1="151.2" x2="805.07" y2="432.16"/>
		<line class="st3" x1="738.87" y1="164.11" x2="717.7" y2="208.28"/>
		<line class="st3" x1="771.17" y1="188.34" x2="738.87" y2="262.17"/>
		<line class="st3" x1="798.62" y1="222.25" x2="759.86" y2="315.61"/>
		<line class="st3" x1="821.22" y1="272.3" x2="780.2" y2="367.37"/>
		<line class="st3" x1="837.37" y1="336.89" x2="800.71" y2="417.63"/>
		<line class="st3" x1="672.67" y1="194.79" x2="720.44" y2="215.27"/>
		<line class="st3" x1="682.35" y1="244.85" x2="741.52" y2="268.93"/>
		<line class="st3" x1="664.59" y1="278.76" x2="762.25" y2="321.69"/>
		<line class="st3" x1="687.2" y1="333.66" x2="783.18" y2="374.97"/>
		<line class="st3" x1="750.17" y1="404.44" x2="802.89" y2="426.56"/>
	</g>
	<line class="st4" x1="823.45" y1="253.53" x2="834.45" y2="253.53"/>
</g>
<path class="st5" d="M573.95,324.86c-8.46-11.7-32.73-51.72-36.87-57.76c-3.94-5.75-8.11-11.94-15.55-18.66
	c-3.09-2.79-5.85-4.86-7.77-6.22"/>
<ellipse transform="matrix(0.793 -0.6092 0.6092 0.793 -38.5702 358.4017)" class="st6" cx="508.17" cy="235.96" rx="24.18" ry="9.32"/>
<ellipse transform="matrix(0.793 -0.6092 0.6092 0.793 -38.724 358.3647)" class="st7" cx="508.04" cy="236.17" rx="8.75" ry="3.37"/>
<path class="st5" d="M594.95,308.86c-5.54-21.77-21.37-76.45-26.89-91.85c-9.95-27.78-19.43-47.93-21.77-52.86
	c-9.73-20.5-18.59-35.83-24.88-46.64c-6.66-11.46-12.6-20.97-17.1-27.99"/>
<ellipse transform="matrix(0.9172 -0.3984 0.3984 0.9172 10.3378 202.8688)" class="st8" cx="493.26" cy="76.56" rx="46.34" ry="17.86"/>
<ellipse transform="matrix(0.906 -0.4233 0.4233 0.906 14.4441 216.0873)" class="st9" cx="493.77" cy="75.52" rx="14.07" ry="5.77"/>
<path class="st5" d="M646.95,379.86c-0.61-8.77-2.04-54.48-3.59-68.23c-1.37-12.18-5.2-43.65-13.99-83.96
	c-5.4-24.75-12.85-53.65-23.32-85.51"/>
<ellipse transform="matrix(0.9172 -0.3984 0.3984 0.9172 -4.5386 252.1163)" class="st10" cx="604.31" cy="136.98" rx="20.31" ry="7.83"/>
<ellipse transform="matrix(0.8969 -0.4423 0.4423 0.8969 1.7823 281.5738)" class="st6" cx="604.69" cy="136.96" rx="4.12" ry="1.59"/>
<line class="st4" x1="818.95" y1="237.86" x2="827.95" y2="228.86"/>
<g>
	<path class="st8" d="M799.53,739.96c-25.62-0.16-26.04-12.21-71.52-17.1c-5.03-0.54-26.57-0.95-45.09-13.99
		c-6.71-4.73-13.45-9.12-17.1-17.1c-3.41-7.46-3.2-14.78-3.11-17.1c0.12-3.03,0.33-8.27,3.11-13.99c3.02-6.21,6.15-7.01,6.22-10.88
		c0.09-5.3-5.68-9.39-7.77-10.88c-7.16-5.08-14.23-5.32-21.77-6.22c-11.44-1.37-20.07-4.02-37.32-9.33
		c-12.52-3.85-18.94-5.88-26.43-10.88c-7-4.67-16.03-10.7-18.66-21.77c-0.38-1.59-3.13-13.19,3.11-20.21
		c5.52-6.2,18.83-9.7,23.32-10.88c2.46-0.65,4.69-1.11,6.22-3.11c3.9-5.12-1.08-14.67-1.55-15.55c-3.75-6.99-9.06-9.37-15.55-13.99
		c-4.11-2.93-9.48-8.69-20.21-20.21c-22.99-24.68-42.82-45.95-38.87-65.3c4.25-20.84,32.84-23.63,37.32-51.31
		c1.29-8.01,0-13.99,0-13.99c-1.27-3.71-3.18-5.57-4.66-7.77c-4.14-6.13-3.74-12.88-3.11-23.32c0.46-7.68,1.4-20.92,9.33-35.76
		c5.07-9.49,8.76-16.4,17.1-20.21c12.17-5.56,24.06-0.37,24.88,0c14.87,6.82,18.26,24.2,18.66,26.43c0.86,4.83,0,5.98,1.55,23.32
		c0.46,5.16,0.86,8.63,3.11,12.44c3.5,5.91,9.04,8.5,10.88,9.33c10.41,4.69,20.85,0.93,23.32,0c8.65-3.26,8.43-7.21,23.32-18.66
		c13.46-10.35,18.43-10.81,20.21-10.88c9.78-0.43,17.32,6.54,18.66,7.77c17.95,16.59,14.4,53.7,13.99,57.53
		c-0.59,5.53-1.84,12.48,1.55,20.21c3.17,7.23,8.71,11.27,12.44,13.99c3.58,2.62,16.85,12.3,26.43,7.77
		c2.35-1.11,2.64-2.21,7.77-9.33c13.7-19.01,19.64-22.27,21.77-23.32c2.31-1.15,6.76-3.35,12.44-3.11
		c10.02,0.43,17.42,8.2,23.32,15.55c18.61,23.19,26.43,46.64,26.43,46.64c19.7,59.09,11.28,74.66,29.54,93.29
		c1.13,1.16,23.69,23.79,38.87,20.21c1.37-0.32,4.46-1.28,7.77,0c6.1,2.35,9.07,10.76,9.33,17.1c0.4,9.83-5.59,17.49-7.77,20.21
		c-66.75,83.09-100.12,124.64-141.49,124.38L799.53,739.96z"/>
	<g>
		<path class="st6" d="M831.08,688.06c-30.69-28.8-74.59-69.62-104.59-98.78c-6.92-6.7-13.6-13.7-20.15-20.77
			c-19.53-21.31-36.97-44.58-52.51-68.92c-15.42-24.39-28.89-49.96-40.91-76.18c-15.87-35.02-28.21-71.57-36.92-108.93l0.88-0.21
			c17.02,67.26,46.27,131.17,85.05,188.6c20.11,29.52,43.39,56.92,69.51,81.27c30.44,28.43,75.28,68.53,106.36,96.55l-6.73,7.39l0,0
			L831.08,688.06z"/>
		<path class="st6" d="M692.05,387.67c-12.53,25.31-19.92,53.19-22.21,81.3c-1.14,16.8-0.12,33.87,2.08,50.52l-5.95,0.74
			c-1.71-17.21-2.2-34.46-0.47-51.66c1.91-17.1,5.9-33.96,11.59-50.17c3.61-10.81,8.33-21.33,13.75-31.35L692.05,387.67
			L692.05,387.67L692.05,387.67z"/>
		<path class="st6" d="M568.66,468.47c10.56,2.35,20.94,5.54,30.96,9.77c8.65,3.62,20.56,10.09,29.02,14.42
			c10.76,5.6,21.54,11.57,31.43,18.82c6.13,4.66,15.61,13.36,21.51,18.48l-3.24,3.81l-11.98-10.9c-11.71-11-25.35-19.29-39.42-27.06
			c-8.25-4.51-19.95-11.27-28.41-15.09c-9.71-4.41-19.9-7.86-30.28-10.46l0.42-1.78l0,0L568.66,468.47z"/>
		<path class="st6" d="M822.48,448.32c1.3,23.79-4.33,47.13-8.58,70.37c-3.92,20.25-8.16,40.61-12.9,60.7
			c-3.83,16.4-9.77,33.84-15.07,50.56c-0.66,2.13-1.56,4-0.71,6.35l-8.53-2.88c2.1-1.35,2.52-3.39,3.29-5.48l2.09-5.89
			c4.22-11.97,9.77-27.55,12.61-37.47c9.36-33.29,16.72-67.23,23.27-101.16c2.05-11.54,2.93-23.3,2.48-35.02L822.48,448.32
			L822.48,448.32L822.48,448.32z"/>
		<path class="st6" d="M585.46,584.7c51.39-0.44,102.83,2.14,153.93,7.69l-0.88,6.94c-25.32-3.62-50.81-6.55-76.3-8.81
			c-25.52-2.22-51.13-3.73-76.76-4.51v-1.32h0.01V584.7z"/>
		<path class="st6" d="M697.41,686.01c13.32-1.92,26.8-3.12,40.26-3.47c11.33,0.07,22.9-0.1,34.2,0.24l24.85,0.59l-0.57,7.98
			c-17.04-1.72-38.56-3.79-55.44-4.91c-6.11-0.5-12.39-0.57-18.51-0.6c-8.24,0-16.49,0.29-24.73,0.87l-0.08-0.71l0,0L697.41,686.01z
			"/>
	</g>
</g>
<path class="st2" d="M1279.87,516.24c-2.59-8.62-6.87-17.29-10.36-24.76h0.01c-4.74-12.11-17.01-27.96-23.25-35.51
	c-6.14-6.98-32.06-0.43-52.46,10.3c-14.51-16.83-31.52-31.43-50.46-43.23c4.96-13.24,8.94-29.02,9.28-36.53
	c0.36-7.96-3.85-15.46-10.82-19.34c-7.87-4.37-16.98-7.61-24.69-10.53l0,0c-11.83-5.39-31.67-8.21-41.41-9.27
	c-9.18-0.73-23.01,21.59-30.23,43.3c-6-0.5-12.07-0.75-18.2-0.75c-15.92,0-31.44,1.69-46.4,4.91c-6.34-12.9-15.47-27.1-20.86-32.59
	c-5.58-5.69-13.94-7.72-21.53-5.26c-8.56,2.78-17.14,7.24-24.53,10.89h-0.01c-12,4.99-27.58,17.59-35,23.99
	c-6.36,5.84-0.69,28.46,9.08,47.8c-17.89,14.66-33.42,32.09-45.94,51.63c-12.74-4.31-27.11-7.6-34.16-7.81
	c-7.97-0.23-15.4,4.1-19.16,11.14c-4.24,7.93-7.34,17.1-10.13,24.85h-0.01c-5.19,11.92-7.68,31.8-8.59,41.56
	c-0.53,8.44,18.44,20.49,38.45,27.71c-0.66,6.9-0.99,13.89-0.99,20.96c0,16.85,1.9,33.26,5.49,49.03
	c-11.37,6.03-22.74,13.53-27.52,18.21c-5.69,5.57-7.73,13.93-5.28,21.52c2.77,8.57,7.22,17.15,10.86,24.55l0,0
	c4.98,12.01,17.56,27.61,23.95,35.04c5.44,5.94,25.5,1.43,43.89-7.12c15.43,18.39,33.83,34.21,54.45,46.74
	c-3.73,11.6-6.47,23.77-6.7,30.08c-0.28,7.96,4,15.43,11.01,19.24c7.91,4.29,17.05,7.45,24.78,10.3l0,0
	c11.89,5.28,31.75,7.91,41.5,8.88c8.3,0.58,20.21-17.67,27.61-37.25c5.2,0.37,10.45,0.56,15.75,0.56c18.84,0,37.12-2.37,54.57-6.83
	c5.92,11.4,13.3,22.8,17.93,27.62c5.52,5.75,13.86,7.87,21.48,5.49c8.58-2.69,17.21-7.06,24.64-10.64h0.01
	c12.05-4.86,27.76-17.3,35.25-23.62c6.34-5.7,1.11-27.92-8.25-47.2c45.47-40.26,74.14-99.08,74.14-164.6
	c0-17.84-2.13-35.19-6.14-51.8c13.09-6.05,27.61-14.95,33.25-20.25c5.8-5.46,8.01-13.77,5.71-21.41L1279.87,516.24z M1026.48,709.6
	c-55.61,0-100.7-45.09-100.7-100.7s45.09-100.7,100.7-100.7c55.61,0,100.7,45.09,100.7,100.7S1082.08,709.6,1026.48,709.6z"/>
<path class="st11" d="M1080.78,415.24c-39-13.94-79.72-12.86-115.83,0.25"/>
<path class="st12" d="M838,644.36c4.89,29.85,16.61,57.41,33.5,81"/>
<path class="st11" d="M1155.76,552.41c-21.14-49.98-70.63-85.05-128.31-85.05c-76.91,0-139.25,62.34-139.25,139.25
	s62.34,139.25,139.25,139.25c76.91,0,139.25-62.34,139.25-139.25C1166.7,587.38,1162.8,569.07,1155.76,552.41"/>
<g>
	<path class="st2" d="M1738.71,481.16c4.1-9.62,7.44-19.72,9.95-30.23c3.52-14.79,5.18-29.6,5.13-44.16
		c12.05-2.43,25.84-6.95,31.56-10.23c5.89-3.38,9.36-9.84,8.96-16.62c-0.45-7.66-2.28-15.69-3.7-22.57h0.01
		c-1.54-10.97-8.59-26.54-12.27-34.03c-3.71-7-26.5-6.68-45.53-1.81c-8.71-16.82-19.93-32.28-33.31-45.8
		c6.73-10,13.14-22.3,14.9-28.46c1.87-6.53-0.14-13.58-5.15-18.17c-5.66-5.18-12.58-9.66-18.39-13.6l0,0
		c-8.75-6.8-24.64-13.06-32.51-15.86c-7.47-2.42-23.34,13.36-33.61,29.93c-4.88-1.6-9.86-3-14.94-4.21
		c-13.2-3.14-26.4-4.8-39.44-5.09c-2.71-11.95-7.48-25.52-10.86-31.14c-3.5-5.82-10.03-9.15-16.81-8.61
		c-7.65,0.62-15.64,2.62-22.49,4.19l0,0c-10.94,1.77-26.34,9.14-33.75,12.98c-6.43,3.59-6.19,23.46-1.9,41.42
		c-17.73,8.62-34.04,20.01-48.28,33.74c-9.71-6.09-20.98-11.65-26.78-13.22c-6.56-1.76-13.58,0.36-18.08,5.46
		c-5.08,5.74-9.46,12.73-13.3,18.6l0,0c-6.66,8.86-12.64,24.85-15.32,32.76c-2.11,6.89,11.25,20.63,26.41,30.56
		c-1.91,5.59-3.56,11.32-4.96,17.18c-3.33,13.97-4.99,27.95-5.12,41.73c-10.62,2.76-21.52,6.73-26.41,9.67
		c-5.82,3.5-9.16,10.02-8.62,16.8c0.61,7.65,2.6,15.64,4.16,22.5h-0.01c1.76,10.94,9.11,26.35,12.94,33.78
		c3.34,6,20.86,6.22,37.79,2.76c9.16,18.29,21.3,35.04,35.92,49.5c-5.38,8.88-10.06,18.43-11.49,23.62
		c-1.8,6.54,0.27,13.58,5.33,18.12c5.71,5.12,12.67,9.54,18.51,13.43l0,0c8.82,6.72,24.76,12.82,32.66,15.55
		c6.77,2.12,20.24-10.66,30.24-25.44c4.24,1.33,8.55,2.53,12.95,3.57c15.62,3.72,31.24,5.36,46.59,5.11
		c2.66,10.62,6.53,21.53,9.42,26.44c3.44,5.86,9.94,9.26,16.73,8.79c7.64-0.54,15.66-2.46,22.53-3.96l0,0
		c10.95-1.65,26.43-8.86,33.89-12.62c6.38-3.47,6.43-22.93,2.47-40.76c11.19-5.98,21.78-13.1,31.56-21.22
		c10.61,7.99,28.69,17.14,36.6,19.11c6.59,1.65,13.57-0.6,17.99-5.78c4.98-5.83,9.22-12.9,12.97-18.84l0,0
		c6.49-8.97,12.19-25.08,14.73-33.03c2.09-7.36-13.38-22.12-29.85-31.84L1738.71,481.16z M1546.07,490.23
		c-46.11-10.97-74.59-57.26-63.62-103.36c10.97-46.11,57.26-74.59,103.36-63.62s74.59,57.26,63.62,103.36
		C1638.46,472.72,1592.17,501.2,1546.07,490.23z"/>
	<circle class="st12" cx="1568.7" cy="406.86" r="120.75"/>
	<g>
		<path class="st11" d="M1718.19,486.78c12.31-23.61,19.26-50.45,19.26-78.92c0-23.61-4.78-46.1-13.44-66.56"/>
		<path class="st11" d="M1724.01,341.3c-18.9-44.69-56.26-79.67-102.52-95.39"/>
	</g>
	<path class="st11" d="M1422.78,315.02c-26.6,39.51-34.5,86.13-25.75,129.4"/>
</g>
<g>
	<path class="st8" d="M1566.78,549.85c-6.43,102.84,69.62,192.46,69.62,192.46s88.04-93.5,110.74-194.01
		c21.77-96.4-88.28-178.47-88.28-178.47S1574.55,425.46,1566.78,549.85z"/>
	<line class="st12" x1="1658.86" y1="369.49" x2="1636.4" y2="742.31"/>
	<line class="st12" x1="1571.69" y1="512.39" x2="1647.63" y2="547.11"/>
</g>
<g>
	<path class="st13" d="M1858.35,446.59c-0.12-0.26-0.19-0.39-0.19-0.39s-0.5-0.03-1.42-0.06c0,0-0.01,0-0.02,0s-0.03,0-0.04,0
		c-12.12-0.38-96.85-0.14-168.85,76.17c-150.92,159.98-52.86,230.11-52.86,230.11s113.5,26.44,222.33-132.15
		C1906.46,548.63,1861.68,453.42,1858.35,446.59z"/>
	<path class="st14" d="M1858.13,446.86c-22.97,28.33-46.27,56.39-69.41,84.59s-46.57,57.93-70.71,86.2
		c-13.26,15.53-26.57,31.05-39.07,47.21"/>
	<line class="st14" x1="1716.95" y1="496.86" x2="1745.8" y2="583.2"/>
	<line class="st14" x1="1879.85" y1="515.32" x2="1799.9" y2="517.61"/>
</g>
<line class="st14" x1="1838.45" y1="644.86" x2="1695.35" y2="644.37"/>
<g>
	<path class="st8" d="M1580.19,824.47c0,0-23.19,105.54,175.82,29.36c102.52-39.25,122.03-147.13,122.03-147.13
		s-66.06-64.33-192-23.9C1601.83,709.83,1580.18,824.47,1580.19,824.47L1580.19,824.47z"/>
	<g>
		<line class="st15" x1="1674.45" y1="785.36" x2="1879.45" y2="706.36"/>
		<line class="st15" x1="1788.45" y1="671.36" x2="1748.45" y2="756.36"/>
		<line class="st15" x1="1773.45" y1="846.36" x2="1668.45" y2="792.36"/>
	</g>
</g>
<g>
	<path class="st10" d="M1407.12,826.12c1.92-0.6,3.86-1.27,5.78-2.02c9.09,12.4,20.18,23.27,32.83,32.14
		c-2.87,7.26-5.13,14.92-5.54,18.94c-0.51,5.08,1.91,10.03,6.23,12.76c4.87,3.07,10.58,5.47,15.4,7.62
		c3.69,1.94,8.68,3.53,13.52,4.77s9.53,2.13,12.62,2.64c5.28,0.72,13.66-10.44,19.21-22.64c3.3,0.45,6.65,0.79,10.04,1.01
		c12.03,0.79,23.81,0.05,35.15-2.07c3.3,7.53,7.54,15.12,10.3,18.4c3.28,3.9,8.52,5.61,13.49,4.4c5.6-1.35,11.29-3.78,16.19-5.76
		h0.01c7.9-2.6,18.46-9.89,23.51-13.61c4.29-3.38,1.88-17.8-3.29-30.51c7.53-5.84,14.48-12.44,20.7-19.69
		c8.87,4.59,23.41,9.09,29.52,9.56c5.09,0.39,9.97-2.15,12.59-6.54c2.96-4.95,5.21-10.72,7.24-15.59c1.84-3.73,3.31-8.76,4.43-13.63
		s1.89-9.58,2.33-12.69c0.63-5.71-12.69-14.7-26.11-19.83c1.83-7.65,3.03-15.54,3.56-23.65c0.75-11.39,0.12-22.57-1.75-33.35
		c8.62-3.32,18.27-8.39,22.1-11.54c3.93-3.25,5.69-8.47,4.54-13.44c-1.29-5.62-3.66-11.34-5.58-16.26h0.01
		c-2.52-7.93-9.7-18.58-13.37-23.66c-3.63-4.72-20.47-1.62-33.95,4.38c-8.56-11.36-18.82-21.4-30.43-29.73
		c3.73-8.26,6.93-18.17,7.46-22.96c0.57-5.07-1.81-10.03-6.1-12.81c-4.84-3.12-10.53-5.57-15.33-7.76
		c-3.67-1.97-8.64-3.61-13.47-4.9c-4.83-1.28-9.51-2.22-12.6-2.76c-5.84-0.85-15.61,12.83-21.13,26.4
		c-3.81-0.57-7.68-0.98-11.6-1.24c-10.17-0.67-20.16-0.24-29.85,1.19c-3.51-8.51-8.75-17.96-11.96-21.7
		c-3.33-3.86-8.59-5.51-13.54-4.26c-5.58,1.42-11.25,3.91-16.13,5.93l0,0c-7.88,2.69-18.36,10.08-23.37,13.86
		c-4.31,3.47-1.64,18.16,3.8,30.92c-12.05,8.62-22.7,19.1-31.52,31.06c-7.96-3.28-17-5.99-21.5-6.42
		c-5.08-0.48-10.01,1.98-12.71,6.32c-3.04,4.89-5.4,10.62-7.51,15.45h-0.01c-3.81,7.4-6.24,20-7.23,26.19
		c-0.69,5.37,10.92,13.87,23.41,19.32c-0.71,4.38-1.22,8.83-1.51,13.35c-0.71,10.77-0.18,21.33,1.45,31.56
		c-7.52,3.37-15.1,7.69-18.35,10.48c-3.87,3.32-5.52,8.57-4.27,13.53c1.41,5.59,3.89,11.26,5.91,16.14h-0.01
		c2.68,7.88,10.06,18.37,13.83,23.39C1387.28,830.19,1396.92,829.28,1407.12,826.12 M1590.28,744.6
		c-2.33,35.53-33.04,62.45-68.56,60.12c-35.53-2.33-62.45-33.03-60.12-68.56c2.33-35.53,33.03-62.45,68.56-60.12
		C1565.69,678.37,1592.61,709.07,1590.28,744.6L1590.28,744.6z"/>
	<circle class="st16" cx="1527.95" cy="737.86" r="89.5"/>
	<path class="st16" d="M1633.3,663.46c14.95,21.52,20,41.62,20,70c0,72.9-57.98,132-129.5,132c-29.5,0-56.7-10.05-78.47-26.98"/>
	<polyline class="st17" points="1385.45,774.86 1405.18,809.86 1446.45,809.86 	"/>
	<path class="st11" d="M1415.96,673.13c14.27-26.82,37.47-45.84,63.99-55.33"/>
</g>
<path class="st12" d="M876.5,735.36c35.1,49.04,92.54,81,157.45,81c57.25,0,108.68-24.86,144.11-64.37"/>
<g>
	<g>
		<line class="st18" x1="1050.95" y1="991.86" x2="1113.95" y2="777.86"/>
		<line class="st18" x1="1386.23" y1="991.86" x2="1313.95" y2="744.86"/>
		<line class="st19" x1="1061.33" y1="956.62" x2="1325.66" y2="784.86"/>
		<line class="st19" x1="1111.89" y1="784.86" x2="1376.55" y2="958.78"/>
	</g>
	<path class="st20" d="M1278.45,763.36c-106.35,22.22-203.08,13.19-289-31c154.94-37.71,291.56-152.28,410.22-342.13l130,63
		C1482.66,552.92,1386.45,738.36,1278.45,763.36z"/>
	<path class="st6" d="M961.2,990.27c-0.08,0.52-0.16,1.05-0.25,1.59h-19v-6.78l-5.11,1.15l-31.11,6.13l-46.28-0.5v-0.04l-0.5,0.04
		c-0.61-3.34,0.96-6.67,4-10c23.96-2.35,46.14-10.44,66-26c4.13,2.61,8.72,3.72,13,4.23v-0.23c0,0,8,0,13-4
		C961.77,958.51,964,971.37,961.2,990.27z"/>
	<path class="st6" d="M770.2,990.27c-0.08,0.52-0.16,1.05-0.25,1.59h-19v-6.78l-5.11,1.15l-31.11,6.13l-46.28-0.5v-0.04l-0.5,0.04
		c-0.61-3.34,0.96-6.67,4-10c23.96-2.35,46.14-10.44,66-26c4.13,2.61,8.72,3.72,13,4.23v-0.23c0,0,8,0,13-4
		C770.77,958.51,773,971.37,770.2,990.27z"/>
	<g>
		<path class="st8" d="M1529.45,452.36c-0.62-0.28-8.71,18.67-24,47c-21.3,39.47-40.13,66.64-46,75c-16.32,23.22-30.39,40.2-37,48
			c-5.98,7.06-15.85,18.66-30,33c-11.51,11.67-25.95,26.19-47,42c0,0-14.16,10.64-28,19c-47.25,28.56-119.46,28.96-128,31
			c-155,37-229-46-182-12c0.07,0.05,0,0.07,0,7c0,6.22-0.97,7.19,0,9c0.9,1.69,2.57,2.41,4,3c16.59,6.87,16.94,6.98,17,7
			c8.94,2.74,6.38,2.39,15,5c28.93,8.76,53,13,53,13c27.68,4.88,49.31,5.77,57,6c17.26,0.52,30.22-0.26,42-1
			c20.46-1.29,33.98-2.14,52-6c25.24-5.41,43.15-13.28,47-15c19.44-8.69,32.79-18.05,44-26c15.86-11.25,27.24-21.56,33-27
			c10.07-9.51,16.44-16.84,27-29c8.85-10.19,19.94-23.02,33-41c11.25-15.49,18.5-27.3,30-46c8.07-13.13,13.88-22.59,21-36
			c5.67-10.68,10.01-19.81,19-40C1502.72,515.51,1530.59,452.88,1529.45,452.36z"/>
		<path class="st6" d="M960.95,939.36l-31.5-0.5l34.5-314.5c0-20.22,18.39-37,38.6-37l263.4,8c20.22,0,35,8.39,35,28.6l-281,112.4
			C1029.95,754.36,973.95,912.36,960.95,939.36z"/>
		<path class="st21" d="M1349.95,686.36c-7.33,10.65-19.46,25.71-38,39c-38.28,27.43-79.49,30.83-127,33
			c-18.65,0.85-53.08,0.23-97-7c-31.95-5.26-77.79-16-130-40l-6-1c-36.79,80.53-104.22,158.1-175.76,226.81
			c-0.41,0.4-0.83,0.79-1.24,1.19h-30l122.86-256l12.14-25h0.01c10.66-23.59,34.39-40,61.96-40l327.03,18l76.12,50.11
			L1349.95,686.36z"/>
	</g>
	<path class="st22" d="M1425.45,509.86c-5.99,34.56-16.01,59.1-27,86c0,0-14.8,36.23-31,63c-5.43,8.96-12,19-12,19
		c-0.8,1.21-2.18,3.3-3,4.54c-1.97,2.97-2.95,4.46-3,4.46c-0.2-0.01-0.43-0.51-0.66-1.49l-0.34,3.49l-150-96l137-232l44.7-12.63
		l1.3-0.37c0.19,0.01,0.44,0.14,2,1c9.46,5.18,12.53,14.55,17,21c8.64,12.46,13.6,22.96,15,26c11.36,24.67,13.19,46.98,14,58
		C1431.11,476.53,1428.3,493.44,1425.45,509.86z"/>
	<path class="st23" d="M764.45,955.36c-8.71,5.94-17.37,6.02-26,1l7-19l34-7L764.45,955.36z"/>
	<path class="st23" d="M954.95,955.54c-9.94,6.38-18.58,6.26-26,0l2-17.18h26L954.95,955.54z"/>
	<path class="st1" d="M1143.45,603.36c1.29,8.84,3.27,21.62,6,37c4.23,23.81,6.35,35.72,10,48c5.35,17.99,11.36,30.77,19,47
		c8.57,18.21,12.86,27.34,21,39c5.17,7.41,15.61,21.17,32,35c11.84,9.99,32.23,26.82,64,35c28.66,7.38,51.67,3.89,57,3
		c11.94-1.99,25.02-6.9,36.33-12.11"/>
</g>
<path class="st22" d="M1382.45,346.86l-1.3,0.37C1381.58,346.97,1382.02,346.84,1382.45,346.86z"/>
<g>
	<path class="st24" d="M1425.95,590.36c-1.5,5.02-0.91,6.83-3,12c-0.86,2.14-2.47,6.02-6,10c-4.24,4.78-8.84,6.99-11,8
		c-0.49,0.23-1.22,0.55-2.14,0.91c-1.87,0.73-4.57,1.59-7.86,2.09c-4.09,0.62-8.07,0.04-16-1c-3.13-0.41-4.71-0.62-6-1
		c-0.94-0.27-1-0.57-2-1l-1.02-0.36c-0.14,0-0.28-0.01-0.42-0.02c-0.71-0.03-1.43-0.05-2.14-0.08c-1.06-0.06-1.96-0.08-2.74-0.14
		c-1.27-0.32-2.53-0.66-3.79-0.99h-0.01c-69.07-18.35-134.12-44.98-189.89-78.42l6.85-16.47c46.85,7.29,108.76,20.54,175.05,34.44
		c-0.45-1.45-0.91-2.94-1.4-4.47c-24-75-43.03-174.38,18-179c62.96-4.77,64.82,144.05,57.17,201.36c-0.37,2.77-0.76,5.33-1.17,7.64"
		/>
	<g>
		<path class="st25" d="M1169.45,541.86l8.5-18.5c56,10,118.5,22,174.5,34c-12-36-20.5-74-22.5-113"/>
		<path class="st26" d="M1429.45,490.86c0.78,17.04,0.98,31.35,1,42c0,5.63-0.02,18.03-1,34c-1.48,24.12-3.51,30.09-6,35
			c-2.09,4.11-6.94,13.69-17,19c-10.58,5.59-21.58,3.64-37,0c-38.98-9.19-56-16-56-16c-24.45-7.78-51.44-17.85-80-31
			c-23.32-10.73-44.32-21.97-63-33"/>
	</g>
</g>
<g>
	<polyline class="st18" points="984.89,447.36 1056.89,591.36 1207.45,591.36 	"/>
	<rect x="1135.45" y="590.36" class="st27" width="17" height="13"/>
</g>
<g>
	<polygon class="st28" points="1334.45,349.86 1366.45,321.86 1382.45,347.86 1336.45,360.86 	"/>
	<polygon class="st29" points="1331.45,334.86 1335.44,348.99 1366.45,321.86 1351.45,297.86 	"/>
	<path class="st23" d="M1353.45,299.36c2.82,20.33-16.24,45.27-45,46c-17.96-10.69-23.53-40.51-29-67c3.89,0.88,44.6-21.21,45-17
		c3.08,0.62,8.06,9.58,14.7,19.65c0.09-0.21,0.2-0.43,0.3-0.65c0.44-0.93,1.23-2.62,3-4c2.57-2.01,5.47-2.01,6-2
		c1.02,0.02,2.52,0.04,4,1c2.11,1.37,3.04,3.9,3,6c-0.05,2.55-1.52,4.27-3,6c-1.66,1.95-3.47,3.15-5,4
		c-0.22,0.12-0.45,0.24-0.69,0.36C1348.88,294.42,1351.11,297.02,1353.45,299.36z"/>
	<path class="st6" d="M1321.45,262.36c0.81-0.46,1.91-0.32,3,0c1.23,0.36,2.15,1.24,4,4c1.39,2.07,1.57,2.65,3,5
		c1.87,3.09,1.86,2.59,4,6c1.99,3.17,2.22,3.94,3,4c1.57,0.12,1.82-2.96,5-5c0.51-0.32,3.85-2.4,7-1c1.84,0.82,2.73,2.43,3,3
		c1.1,2.29,0.44,4.51,0,6c-0.21,0.72-0.92,3.02-3,5c-2.1,2-3.66,1.84-4,3c-0.29,0.98,0.34,2.72,5,6c3.09-3.98,4.39-7.57,5-10
		c0.83-3.32,0.89-6.55,1-13c0.02-1.36,0.01-1.77,0-5c-0.04-12.62,0.12-12.04,0-15c-0.35-8.21-1.68-13.73-2-15
		c-0.79-3.15-1.87-6.48-4-10c-0.99-1.64-1.69-2.78-3-4c-3.76-3.51-8.46-3.9-10-4c-3.54-0.24-6.11,0.65-10,2
		c-4.89,1.69-4.75,2.57-9,4c-4.28,1.44-7.84,1.71-12,2c-4.37,0.3-7.49,0.15-11,0c-21.27-0.92-23.96-0.48-26,0
		c-3.59,0.85-8.55,1.98-13,6c-3.27,2.95-5.17,6.44-6,8c-2.07,3.89-2.82,7.18-3,8c-0.63,2.91-1.54,7.11,0,12c1.51,4.81,4.58,7.69,6,9
		c4.57,4.19,9.62,5.29,13,6c9.46,1.98,17.48-0.54,22-2c3.89-1.26,2.76-1.4,12-5c9.41-3.66-2,1,12-5"/>
</g>
<path class="st30" d="M1103.45,516.36l28-9c3.71-1.34,7.53-1.27,11.43,0l27.57,12l-8,18l-9-5c-1.33,1-2.67,2-4,3
	c-0.99,0.54-2.35,1.25-4,2c-4.67,2.12-8.84,3.3-12,4c-6.97,1.55-10.46,2.32-14,1c-1.87-0.69-5.13-1.91-7-5c-1.29-2.14-2-5.3-4-6
	c-0.19-0.07-0.66-0.22-1,0c-0.63,0.42-0.13,1.92,0,3c0.18,1.45-0.55,2.98-2,6c-1.16,2.4-2.47,5.08-5,8c-1.4,1.62-2.98,3.4-4,3
	c-0.88-0.35-0.96-2.17-1-3c-0.12-2.71,0.9-4.79,1-5c1.04-2.15,2.24-7.81,3-23C1099.75,518.3,1101.14,517,1103.45,516.36z"/>
<g>
	<path class="st2" d="M358,180.17l-84.74,44.61c-5.68-0.85-11.64-1.28-17.85-1.28h-32.8v27.94L142.9,293.4V155.17h115.7
		C297.61,155.17,331.26,163.81,358,180.17L358,180.17z"/>
	<path class="st2" d="M436.69,327.34c0,102.5-65.59,163.54-168.09,163.54H152.9V303.4l79.71-41.96v161.11h32.8
		c55.12,0,88.83-32.8,88.83-95.21c0-54.8-27.44-86.07-70.98-92.56L368,190.17C411.52,216.79,436.69,263.85,436.69,327.34
		L436.69,327.34z"/>
</g>
<g>
	<path class="st6" d="M512.11,603.14l-36.86,104.59h-82.88l-70.61-199.54l95.73,47.75l3.57,11.53c6.38,20.49,12.3,52.37,12.3,52.37
		h0.91c0,0,5.44-29.32,11.51-49.79L512.11,603.14L512.11,603.14z"/>
	<path class="st6" d="M514.85,371.86L456.56,557.2c-0.26,0.84-0.52,1.7-0.78,2.58l66.33,33.09l77.9-221.01L514.85,371.86
		L514.85,371.86z M287.16,371.86l44.6,126.06l95.73,47.75l-53.81-173.81H287.16L287.16,371.86z"/>
</g>
<g>
	<path class="st8" d="M453.47,723.53l-81.91,12.88c-13.13-34.12-44.45-56.96-81.22-56.96c-45.66,0-82.91,35.2-87.38,83.48
		l-82.79,13.02c-0.02-1.07-0.03-2.14-0.03-3.21c0-93.29,71.9-166.1,170.2-166.1C370.5,606.64,433.1,655.06,453.47,723.53
		L453.47,723.53z"/>
	<path class="st8" d="M453.53,793.74c0,95.56-71.9,170.19-170.19,170.19s-168.58-72.96-170.17-166.98l82.79-13.02
		c-0.3,3.21-0.45,6.49-0.45,9.81c0,55.51,39.13,97.38,87.83,97.38s87.82-41.87,87.82-97.38c0-13.03-2.34-25.27-6.6-36.33
		l81.91-12.88C451.08,760.02,453.53,776.53,453.53,793.74L453.53,793.74z"/>
</g>
<g>
	<path class="st8" d="M1363.74,111.68c0,18.63-26.28,32.86-29.54,40.49s-0.81,14.42,0,25.35h-34.21c1.92-14.78,0.64-22.89,0-25.99
		c-15.06-10.72-27.99-21.79-27.99-39.85c0-24.54,12.44-44.45,45.87-40.33C1340.9,74.18,1363.74,87.14,1363.74,111.68z"/>
	<path class="st31" d="M1319.42,176.72V118.8c-0.04-0.39-0.25-2.95,1.55-4.83c1.59-1.65,3.65-1.62,4.66-1.61
		c0.32,0,3.93,0.12,6.22,3.22c0.49,0.66,1.8,2.44,1.55,4.83c-0.29,2.79-2.49,4.38-3.11,4.83c-1.26,0.91-2.63,1.34-6.22,1.61
		c-2.29,0.17-5.32,0.57-9.33,0c-2.17-0.31-3.97-0.56-6.22-1.61c-2.32-1.08-3.86-2.42-4.66-3.22c-1.87-1.84-3.06-3.01-3.11-4.83
		c-0.05-1.97,1.24-3.98,3.11-4.83c2.36-1.07,5.06-0.03,6.22,1.61c0.82,1.16,0.78,2.51,0.78,2.87c-0.08,3.83-0.04,27.75,0,60.69"/>
	<path class="st2" d="M1299.99,177.53h34.21v13.23c0,3.97-3.23,7.2-7.2,7.2h-19.83c-3.96,0-7.18-3.22-7.18-7.18v-13.26l0,0V177.53z"
		/>
	<polygon class="st10" points="1324.93,203.81 1310.93,203.81 1306.93,197.74 1327.93,197.74 	"/>
</g>
</svg>
