<svg id="visual" viewBox="0 0 1920 1080" width="1920" height="1080" xmlns="http://www.w3.org/2000/svg" xmlns:xlink="http://www.w3.org/1999/xlink" version="1.1"><path d="M0 195L40 198.7C80 202.3 160 209.7 240 206.2C320 202.7 400 188.3 480 174C560 159.7 640 145.3 720 138.2C800 131 880 131 960 141.7C1040 152.3 1120 173.7 1200 184.3C1280 195 1360 195 1440 196.8C1520 198.7 1600 202.3 1680 197C1760 191.7 1840 177.3 1880 170.2L1920 163L1920 0L1880 0C1840 0 1760 0 1680 0C1600 0 1520 0 1440 0C1360 0 1280 0 1200 0C1120 0 1040 0 960 0C880 0 800 0 720 0C640 0 560 0 480 0C400 0 320 0 240 0C160 0 80 0 40 0L0 0Z" fill="#030303"></path><path d="M0 444L40 458.3C80 472.7 160 501.3 240 519.3C320 537.3 400 544.7 480 528.5C560 512.3 640 472.7 720 445.7C800 418.7 880 404.3 960 436.7C1040 469 1120 548 1200 575C1280 602 1360 577 1440 548.3C1520 519.7 1600 487.3 1680 460.3C1760 433.3 1840 411.7 1880 400.8L1920 390L1920 161L1880 168.2C1840 175.3 1760 189.7 1680 195C1600 200.3 1520 196.7 1440 194.8C1360 193 1280 193 1200 182.3C1120 171.7 1040 150.3 960 139.7C880 129 800 129 720 136.2C640 143.3 560 157.7 480 172C400 186.3 320 200.7 240 204.2C160 207.7 80 200.3 40 196.7L0 193Z" fill="#090909"></path><path d="M0 768L40 771.5C80 775 160 782 240 785.5C320 789 400 789 480 769.3C560 749.7 640 710.3 720 703.2C800 696 880 721 960 751.5C1040 782 1120 818 1200 827C1280 836 1360 818 1440 801.8C1520 785.7 1600 771.3 1680 762.3C1760 753.3 1840 749.7 1880 747.8L1920 746L1920 388L1880 398.8C1840 409.7 1760 431.3 1680 458.3C1600 485.3 1520 517.7 1440 546.3C1360 575 1280 600 1200 573C1120 546 1040 467 960 434.7C880 402.3 800 416.7 720 443.7C640 470.7 560 510.3 480 526.5C400 542.7 320 535.3 240 517.3C160 499.3 80 470.7 40 456.3L0 442Z" fill="#0e0e0e"></path><path d="M0 930L40 922.8C80 915.7 160 901.3 240 901.3C320 901.3 400 915.7 480 906.7C560 897.7 640 865.3 720 859.8C800 854.3 880 875.7 960 895.3C1040 915 1120 933 1200 938.5C1280 944 1360 937 1440 922.7C1520 908.3 1600 886.7 1680 870.5C1760 854.3 1840 843.7 1880 838.3L1920 833L1920 744L1880 745.8C1840 747.7 1760 751.3 1680 760.3C1600 769.3 1520 783.7 1440 799.8C1360 816 1280 834 1200 825C1120 816 1040 780 960 749.5C880 719 800 694 720 701.2C640 708.3 560 747.7 480 767.3C400 787 320 787 240 783.5C160 780 80 773 40 769.5L0 766Z" fill="#121212"></path><path d="M0 1081L40 1081C80 1081 160 1081 240 1081C320 1081 400 1081 480 1081C560 1081 640 1081 720 1081C800 1081 880 1081 960 1081C1040 1081 1120 1081 1200 1081C1280 1081 1360 1081 1440 1081C1520 1081 1600 1081 1680 1081C1760 1081 1840 1081 1880 1081L1920 1081L1920 831L1880 836.3C1840 841.7 1760 852.3 1680 868.5C1600 884.7 1520 906.3 1440 920.7C1360 935 1280 942 1200 936.5C1120 931 1040 913 960 893.3C880 873.7 800 852.3 720 857.8C640 863.3 560 895.7 480 904.7C400 913.7 320 899.3 240 899.3C160 899.3 80 913.7 40 920.8L0 928Z" fill="#161616"></path></svg>